<svg width="14" height="14" viewBox="0 0 14 14" fill="none" xmlns="http://www.w3.org/2000/svg">
<g clip-path="url(#clip0_348_757)">
<path fill-rule="evenodd" clip-rule="evenodd" d="M11.0469 10.9517C12.318 10.9517 13.3933 11.7897 13.7506 12.9434C13.8134 13.1461 13.7792 13.3477 13.6534 13.5185C13.5275 13.6893 13.3449 13.7815 13.1327 13.7815H8.96112C8.74893 13.7815 8.56638 13.6893 8.44049 13.5185C8.31457 13.3477 8.28048 13.1461 8.34323 12.9434C8.70048 11.7897 9.77585 10.9517 11.0469 10.9517Z" fill="#02C39A"/>
<path fill-rule="evenodd" clip-rule="evenodd" d="M11.0469 10.9517C12.318 10.9517 13.3933 11.7897 13.7506 12.9434C13.8134 13.1461 13.7792 13.3477 13.6533 13.5185C13.5274 13.6893 13.3449 13.7815 13.1327 13.7815H12.3684C12.5805 13.7815 12.7631 13.6893 12.889 13.5185C13.0149 13.3477 13.049 13.1461 12.9862 12.9434C12.6654 11.9074 11.7655 11.126 10.6647 10.9774C10.7897 10.9605 10.9173 10.9517 11.0469 10.9517Z" fill="#00A56F"/>
<path d="M11.2406 10.8293C12.0235 10.7226 12.5716 10.0013 12.4649 9.21836C12.3581 8.43541 11.6369 7.88724 10.8539 7.99401C10.071 8.10077 9.52283 8.82203 9.62959 9.60499C9.73636 10.3879 10.4576 10.9361 11.2406 10.8293Z" fill="#F6DCCD"/>
<path fill-rule="evenodd" clip-rule="evenodd" d="M11.0469 7.98138C11.8371 7.98138 12.4777 8.62197 12.4777 9.41215C12.4777 10.2024 11.8371 10.8429 11.0469 10.8429C10.9821 10.8429 10.9183 10.8385 10.8558 10.8302C11.5557 10.7368 12.0955 10.1375 12.0955 9.41215C12.0955 8.68677 11.5557 8.08751 10.8558 7.9941C10.9192 7.98565 10.983 7.9814 11.0469 7.98138Z" fill="#F1CBBC"/>
<path fill-rule="evenodd" clip-rule="evenodd" d="M2.95311 10.9517C4.22422 10.9517 5.29956 11.7897 5.65681 12.9434C5.71959 13.1461 5.68547 13.3477 5.55958 13.5185C5.43368 13.6893 5.25114 13.7815 5.03895 13.7815H0.867306C0.655118 13.7815 0.472571 13.6893 0.346681 13.5185C0.220763 13.3477 0.186665 13.1461 0.249419 12.9434C0.606692 11.7897 1.68207 10.9517 2.95311 10.9517Z" fill="#313189"/>
<path fill-rule="evenodd" clip-rule="evenodd" d="M2.95314 10.9517C4.22421 10.9517 5.29959 11.7897 5.65684 12.9434C5.71962 13.1461 5.68549 13.3477 5.55957 13.5185C5.43368 13.6893 5.25114 13.7815 5.03895 13.7815H4.27461C4.4868 13.7815 4.66934 13.6893 4.79523 13.5185C4.92115 13.3477 4.95525 13.1461 4.8925 12.9434C4.57167 11.9074 3.67171 11.126 2.57098 10.9774C2.69597 10.9605 2.82353 10.9517 2.95314 10.9517Z" fill="black"/>
<path d="M4.21489 10.0872C4.58777 9.39054 4.32526 8.52348 3.62857 8.15061C2.93187 7.77773 2.06481 8.04024 1.69194 8.73693C1.31906 9.43363 1.58157 10.3007 2.27826 10.6736C2.97496 11.0464 3.84202 10.7839 4.21489 10.0872Z" fill="#F6DCCD"/>
<path fill-rule="evenodd" clip-rule="evenodd" d="M2.95313 7.98138C3.74334 7.98138 4.38392 8.62197 4.38392 9.41215C4.38392 10.2024 3.74334 10.8429 2.95313 10.8429C2.88832 10.8429 2.82456 10.8385 2.76202 10.8302C3.46186 10.7368 4.00171 10.1375 4.00171 9.41215C4.00171 8.68677 3.46186 8.08751 2.76202 7.9941C2.82538 7.98565 2.88922 7.9814 2.95313 7.98138Z" fill="#F1CBBC"/>
<path fill-rule="evenodd" clip-rule="evenodd" d="M5.28833 2.88892H12.1789C12.5404 2.88892 12.8352 3.18371 12.8352 3.54517V7.26006C12.8352 7.31959 12.799 7.3702 12.7426 7.38945C12.6863 7.40867 12.6267 7.39076 12.5903 7.34365L11.6371 6.11015H5.28833C4.92687 6.11015 4.63208 5.81535 4.63208 5.4539V3.54517C4.63208 3.18371 4.92687 2.88892 5.28833 2.88892Z" fill="#FFD064"/>
<path fill-rule="evenodd" clip-rule="evenodd" d="M11.9055 2.88892H12.179C12.5404 2.88892 12.8352 3.18371 12.8352 3.54517V7.26006C12.8352 7.31959 12.799 7.3702 12.7426 7.38945C12.6863 7.40867 12.6267 7.39076 12.5903 7.34365L12.5562 7.29949C12.5598 7.28699 12.5618 7.27376 12.5618 7.26006V3.54517C12.5618 3.18371 12.267 2.88892 11.9055 2.88892Z" fill="#FFD064"/>
<path fill-rule="evenodd" clip-rule="evenodd" d="M9.20392 0.218994H2.31329C1.95184 0.218994 1.65704 0.513787 1.65704 0.875244V4.59014C1.65704 4.64967 1.69325 4.70028 1.7496 4.71953C1.80593 4.73875 1.86554 4.72084 1.90193 4.67373L2.85511 3.44022H9.20392C9.56538 3.44022 9.86017 3.14543 9.86017 2.78397V0.875244C9.86017 0.513787 9.56538 0.218994 9.20392 0.218994Z" fill="#313189"/>
<path fill-rule="evenodd" clip-rule="evenodd" d="M9.20389 0.218994H8.93046C9.29191 0.218994 9.58671 0.513787 9.58671 0.875244V2.78397C9.58671 3.14543 9.29191 3.44022 8.93046 3.44022H9.20389C9.56535 3.44022 9.86014 3.14543 9.86014 2.78397V0.875244C9.86014 0.513787 9.56535 0.218994 9.20389 0.218994ZM1.6626 4.62957C1.67477 4.67132 1.70621 4.70471 1.74958 4.71953C1.80591 4.73875 1.86552 4.72084 1.90191 4.67373L2.85509 3.44022H2.58165L1.6626 4.62957Z" fill="black"/>
</g>
<defs>
<clipPath id="clip0_348_757">
<rect width="14" height="14" fill="white"/>
</clipPath>
</defs>
</svg>
