<svg width="14" height="14" viewBox="0 0 14 14" fill="none" xmlns="http://www.w3.org/2000/svg">
<g clip-path="url(#clip0_348_782)">
<path d="M3.95856 8.2377L3.40022 12.4531H2.19464L2.57497 7.98615H2.57552L3.9553 8.23716L3.95856 8.2377Z" fill="#02C39A"/>
<path d="M4.04401 3.13463C4.58008 3.13463 5.01465 2.62227 5.01465 1.99026C5.01465 1.35824 4.58008 0.845886 4.04401 0.845886C3.50794 0.845886 3.07336 1.35824 3.07336 1.99026C3.07336 2.62227 3.50794 3.13463 4.04401 3.13463Z" fill="#02C39A"/>
<path d="M7.07845 8.1531L6.7312 10.7419H5.83214L5.93414 8.53494L3.95855 8.26368L3.95529 8.26313L2.57551 8.01212C2.38164 7.88412 2.26761 7.65198 2.30207 7.40646L2.64414 4.97941L1.48779 6.15365C1.38838 6.2546 1.3159 6.37888 1.27696 6.5151L0.932117 7.72224C0.891103 7.86636 0.759295 7.96151 0.615484 7.96151C0.590595 7.96151 0.565421 7.95853 0.540299 7.95277C0.36828 7.91256 0.25838 7.74441 0.290917 7.57078L0.534232 6.27376C0.578041 6.04011 0.671453 5.81856 0.808166 5.62408L1.67015 4.39789C1.78799 4.23027 1.94442 4.09347 2.12626 3.99903C2.30809 3.90459 2.50997 3.85529 2.71486 3.85529H4.54946C4.78598 3.85529 4.98011 4.01826 5.03427 4.2329C5.04903 4.29141 5.05341 4.35402 5.04521 4.41827L4.92435 5.36653L4.70805 7.06352L6.41804 7.28969C6.83905 7.34541 7.1349 7.73222 7.07845 8.1531Z" fill="#02C39A"/>
<path d="M8.08391 5.13775C8.08388 5.22064 8.05968 5.30173 8.01427 5.37108C7.96887 5.44043 7.90422 5.49504 7.82826 5.52822L6.82861 5.96549C6.76267 5.99432 6.69156 6.00944 6.6196 6.00991C6.54764 6.01039 6.47634 5.99622 6.41003 5.96826L5.50511 5.58668L4.92435 5.34059L5.04521 4.39233C5.05321 4.3304 5.04949 4.26752 5.03427 4.20696L6.50645 5.05543L7.52827 4.73084C7.76124 4.65677 8.00899 4.79348 8.07023 5.03026C8.07933 5.06536 8.08393 5.10148 8.08391 5.13775ZM11.9421 8.02377C11.9242 8.02377 11.9064 8.02024 11.8898 8.01337C11.8732 8.0065 11.8581 7.99643 11.8454 7.98374C11.8327 7.97104 11.8227 7.95597 11.8158 7.93938C11.8089 7.9228 11.8054 7.90502 11.8054 7.88706V7.61362C11.8054 7.57737 11.8198 7.54259 11.8454 7.51696C11.8711 7.49132 11.9058 7.47692 11.9421 7.47692C11.9784 7.47692 12.0131 7.49132 12.0388 7.51696C12.0644 7.54259 12.0788 7.57737 12.0788 7.61362V7.88706C12.0788 7.90502 12.0753 7.9228 12.0684 7.93939C12.0616 7.95598 12.0515 7.97105 12.0388 7.98375C12.0261 7.99644 12.011 8.00651 11.9944 8.01338C11.9778 8.02025 11.9601 8.02378 11.9421 8.02377ZM11.9421 7.20345C11.9058 7.20345 11.8711 7.18905 11.8454 7.16341C11.8198 7.13777 11.8054 7.103 11.8054 7.06674V6.7933C11.8054 6.75704 11.8198 6.72227 11.8454 6.69663C11.8711 6.671 11.9058 6.65659 11.9421 6.65659C11.9784 6.65659 12.0131 6.671 12.0388 6.69663C12.0644 6.72227 12.0788 6.75704 12.0788 6.7933V7.06674C12.0788 7.103 12.0644 7.13777 12.0388 7.16341C12.0131 7.18905 11.9784 7.20345 11.9421 7.20345ZM11.9421 6.38315C11.9058 6.38315 11.8711 6.36875 11.8454 6.34311C11.8198 6.31747 11.8054 6.2827 11.8054 6.24645V5.973C11.8054 5.93675 11.8198 5.90198 11.8454 5.87634C11.8711 5.8507 11.9058 5.8363 11.9421 5.8363C11.9784 5.8363 12.0131 5.8507 12.0388 5.87634C12.0644 5.90198 12.0788 5.93675 12.0788 5.973V6.24645C12.0788 6.2827 12.0644 6.31747 12.0388 6.34311C12.0131 6.36875 11.9784 6.38315 11.9421 6.38315ZM11.9421 5.56283C11.9058 5.56283 11.8711 5.54843 11.8454 5.52279C11.8198 5.49715 11.8054 5.46238 11.8054 5.42612V5.15268C11.8054 5.11643 11.8198 5.08165 11.8454 5.05602C11.8711 5.03038 11.9058 5.01597 11.9421 5.01597C11.9784 5.01597 12.0131 5.03038 12.0388 5.05602C12.0644 5.08165 12.0788 5.11643 12.0788 5.15268V5.42612C12.0788 5.46238 12.0644 5.49715 12.0388 5.52279C12.0131 5.54843 11.9784 5.56283 11.9421 5.56283ZM11.9421 4.74253C11.9058 4.74253 11.8711 4.72813 11.8454 4.70249C11.8198 4.67686 11.8054 4.64208 11.8054 4.60583V4.33239C11.8054 4.29613 11.8198 4.26136 11.8454 4.23572C11.8711 4.21008 11.9058 4.19568 11.9421 4.19568C11.9784 4.19568 12.0131 4.21008 12.0388 4.23572C12.0644 4.26136 12.0788 4.29613 12.0788 4.33239V4.60583C12.0788 4.64208 12.0644 4.67686 12.0388 4.70249C12.0131 4.72813 11.9784 4.74253 11.9421 4.74253ZM9.2447 7.71632C9.22674 7.71632 9.20897 7.71278 9.19238 7.70591C9.17579 7.69904 9.16072 7.68897 9.14803 7.67627C9.13533 7.66358 9.12526 7.64851 9.11839 7.63192C9.11152 7.61534 9.10799 7.59756 9.10799 7.57961V7.30617C9.10799 7.26991 9.12239 7.23514 9.14803 7.2095C9.17367 7.18386 9.20844 7.16946 9.2447 7.16946C9.28095 7.16946 9.31572 7.18386 9.34136 7.2095C9.367 7.23514 9.3814 7.26991 9.3814 7.30617V7.57961C9.3814 7.59756 9.37787 7.61534 9.371 7.63192C9.36413 7.64851 9.35406 7.66358 9.34136 7.67627C9.32867 7.68897 9.3136 7.69904 9.29701 7.70591C9.28042 7.71278 9.26265 7.71632 9.2447 7.71632ZM9.2447 6.89599C9.20844 6.89599 9.17367 6.88159 9.14803 6.85595C9.12239 6.83032 9.10799 6.79554 9.10799 6.75929V6.48585C9.10799 6.44959 9.12239 6.41482 9.14803 6.38918C9.17367 6.36354 9.20844 6.34914 9.2447 6.34914C9.28095 6.34914 9.31572 6.36354 9.34136 6.38918C9.367 6.41482 9.3814 6.44959 9.3814 6.48585V6.75929C9.38141 6.77724 9.37787 6.79502 9.371 6.81161C9.36413 6.82819 9.35406 6.84326 9.34137 6.85596C9.32867 6.86866 9.3136 6.87873 9.29702 6.88559C9.28043 6.89246 9.26265 6.896 9.2447 6.89599ZM9.2447 6.07567C9.20844 6.07567 9.17367 6.06127 9.14803 6.03563C9.12239 6.00999 9.10799 5.97522 9.10799 5.93896V5.66552C9.10799 5.62927 9.12239 5.59449 9.14803 5.56886C9.17367 5.54322 9.20844 5.52882 9.2447 5.52882C9.28095 5.52882 9.31572 5.54322 9.34136 5.56886C9.367 5.59449 9.3814 5.62927 9.3814 5.66552V5.93896C9.38141 5.95692 9.37787 5.9747 9.371 5.99128C9.36413 6.00787 9.35406 6.02294 9.34137 6.03564C9.32867 6.04833 9.3136 6.0584 9.29702 6.06527C9.28043 6.07214 9.26265 6.07567 9.2447 6.07567Z" fill="#02C39A"/>
<path d="M13.8915 2.39203L12.5202 0.177823C12.5086 0.159175 12.4925 0.143763 12.4734 0.13303C12.4543 0.122297 12.4327 0.116595 12.4108 0.116456C12.3889 0.116381 12.3673 0.121834 12.3481 0.132311C12.3288 0.142788 12.3125 0.157951 12.3007 0.176397L10.8826 2.40082C10.8701 2.42041 10.8631 2.443 10.8623 2.46623C10.8616 2.48945 10.8671 2.51246 10.8782 2.53283C10.8894 2.55321 10.9059 2.57021 10.9259 2.58205C10.9459 2.59389 10.9687 2.60013 10.9919 2.60013H11.8125V3.70683C11.8125 3.74121 11.8261 3.77419 11.8505 3.7985C11.8748 3.82281 11.9077 3.83646 11.9421 3.83646C11.9765 3.83646 12.0095 3.82281 12.0338 3.7985C12.0581 3.77419 12.0717 3.74121 12.0717 3.70683V2.4705C12.0717 2.43612 12.0581 2.40315 12.0338 2.37884C12.0095 2.35453 11.9765 2.34087 11.9421 2.34087H11.2283L12.4084 0.489737L13.5485 2.33069H13.0252C12.9908 2.33069 12.9578 2.34434 12.9335 2.36865C12.9092 2.39296 12.8955 2.42594 12.8955 2.46032V8.84942H8.16165C8.12727 8.84942 8.0943 8.86308 8.06998 8.88739C8.04567 8.9117 8.03202 8.94467 8.03202 8.97905V10.5864H4.92435C4.88997 10.5864 4.857 10.6001 4.83269 10.6244C4.80838 10.6487 4.79472 10.6817 4.79472 10.716V12.3234H1.31596C1.28158 12.3234 1.24861 12.337 1.2243 12.3613C1.19999 12.3856 1.18633 12.4186 1.18633 12.453V13.6516H0.938529C0.904149 13.6516 0.871177 13.6653 0.846867 13.6896C0.822556 13.7139 0.808899 13.7469 0.808899 13.7813C0.808899 13.8156 0.822556 13.8486 0.846867 13.8729C0.871177 13.8972 0.904149 13.9109 0.938529 13.9109H12.0788C12.1504 13.9109 12.2085 13.8529 12.2085 13.7813C12.2085 13.7097 12.1504 13.6516 12.0788 13.6516H1.44559V12.5826H4.92435C4.95873 12.5826 4.99171 12.569 5.01602 12.5447C5.04033 12.5203 5.05398 12.4874 5.05398 12.453V10.8457H8.16165C8.19603 10.8457 8.229 10.832 8.25331 10.8077C8.27762 10.7834 8.29128 10.7504 8.29128 10.716V9.10868H13.0252C13.0595 9.10868 13.0925 9.09503 13.1168 9.07071C13.1411 9.0464 13.1548 9.01343 13.1548 8.97905V2.58992H13.7813C13.8044 2.58992 13.827 2.58375 13.847 2.57205C13.8669 2.56035 13.8833 2.54354 13.8945 2.52336C13.9058 2.50318 13.9114 2.48037 13.9109 2.45728C13.9103 2.43419 13.9036 2.41166 13.8915 2.39203Z" fill="#354B87"/>
<path d="M8.46815 3.89777H9.11506V5.09523C9.11506 5.12961 9.12872 5.16258 9.15303 5.18689C9.17734 5.2112 9.21031 5.22486 9.24469 5.22486C9.27907 5.22486 9.31204 5.2112 9.33635 5.18689C9.36066 5.16258 9.37432 5.12961 9.37432 5.09523V3.76814C9.37432 3.73376 9.36066 3.70078 9.33635 3.67647C9.31204 3.65216 9.27907 3.63851 9.24469 3.63851H8.70831L9.76411 2.02991L10.8272 3.6998H10.2664C10.232 3.6998 10.1991 3.71345 10.1747 3.73776C10.1504 3.76207 10.1368 3.79505 10.1368 3.82942V8.26341C10.1368 8.33501 10.1948 8.39304 10.2664 8.39304C10.338 8.39304 10.396 8.33501 10.396 8.26341V3.95905H11.0634C11.0866 3.95905 11.1094 3.9528 11.1294 3.94096C11.1494 3.92913 11.1658 3.91215 11.177 3.89178C11.1882 3.87142 11.1937 3.84843 11.1929 3.82522C11.1922 3.802 11.1852 3.77941 11.1727 3.75981L9.8751 1.72152C9.86348 1.70325 9.84746 1.68819 9.82852 1.6777C9.80958 1.66722 9.78831 1.66165 9.76665 1.6615H9.76575C9.74425 1.6615 9.72309 1.66684 9.70417 1.67705C9.68526 1.68726 9.66917 1.70202 9.65738 1.71999L8.35976 3.697C8.34691 3.71654 8.3396 3.73921 8.33859 3.76258C8.33758 3.78594 8.34292 3.80915 8.35403 3.82973C8.36514 3.85032 8.38162 3.86751 8.40171 3.87949C8.4218 3.89146 8.44476 3.89778 8.46815 3.89777ZM13.5726 13.6516H12.627C12.5554 13.6516 12.4973 13.7096 12.4973 13.7812C12.4973 13.8528 12.5554 13.9109 12.627 13.9109H13.5726C13.6442 13.9109 13.7022 13.8528 13.7022 13.7812C13.7022 13.7096 13.6442 13.6516 13.5726 13.6516ZM0.395937 13.6516H0.246085C0.211705 13.6516 0.178733 13.6652 0.154423 13.6896C0.130112 13.7139 0.116455 13.7468 0.116455 13.7812C0.116455 13.8156 0.130112 13.8486 0.154423 13.8729C0.178733 13.8972 0.211705 13.9109 0.246085 13.9109H0.395911C0.430291 13.9109 0.463264 13.8972 0.487576 13.8729C0.511889 13.8486 0.52555 13.8156 0.525553 13.7812C0.525557 13.7469 0.511903 13.7139 0.487595 13.6896C0.463287 13.6653 0.430316 13.6516 0.395937 13.6516Z" fill="#354B87"/>
</g>
<defs>
<clipPath id="clip0_348_782">
<rect width="14" height="14" fill="white"/>
</clipPath>
</defs>
</svg>
