<svg width="14" height="14" viewBox="0 0 14 14" fill="none" xmlns="http://www.w3.org/2000/svg">
<g clip-path="url(#clip0_348_4049)">
<path d="M9.13874 14.0167C6.78093 14.0167 4.86954 12.1053 4.86954 9.74746C4.86954 7.38965 6.78093 5.47827 9.13874 5.47827C11.4965 5.47827 13.4079 7.38965 13.4079 9.74746C13.4079 12.1053 11.4965 14.0167 9.13874 14.0167Z" fill="#ECB13A"/>
<path d="M9.23529 13.5922C7.00157 13.5922 5.19079 11.7814 5.19079 9.54773C5.19079 7.31402 7.00157 5.50323 9.23529 5.50323C11.469 5.50323 13.2798 7.31402 13.2798 9.54773C13.2798 11.7814 11.469 13.5922 9.23529 13.5922Z" fill="#FFDE4F"/>
<path d="M6.83523 9.56269C6.62884 9.56103 6.46407 9.73579 6.48237 9.94218C6.62551 11.5084 7.739 12.7317 9.10381 12.7467C10.4686 12.7617 11.6071 11.5616 11.7835 9.99877C11.8068 9.79405 11.6454 9.61429 11.439 9.61263L6.83523 9.56269Z" fill="#645033"/>
<path d="M10.9629 8.78546C10.6458 8.78546 10.3887 8.52837 10.3887 8.21124C10.3887 7.89411 10.6458 7.63702 10.9629 7.63702C11.2801 7.63702 11.5371 7.89411 11.5371 8.21124C11.5371 8.52837 11.2801 8.78546 10.9629 8.78546Z" fill="#645033"/>
<path d="M7.26297 8.79211C6.94584 8.79211 6.68875 8.53503 6.68875 8.2179C6.68875 7.90076 6.94584 7.64368 7.26297 7.64368C7.5801 7.64368 7.83719 7.90076 7.83719 8.2179C7.83719 8.53503 7.5801 8.79211 7.26297 8.79211Z" fill="#645033"/>
<path d="M9.13541 9.95552L11.4905 9.98049C11.4622 10.2651 11.3857 10.5397 11.2658 10.7894L11.2409 10.841L9.12542 10.8177L7.00997 10.7944L6.98667 10.7428C6.87349 10.4915 6.80192 10.2135 6.78028 9.92889L9.13541 9.95552Z" fill="white"/>
<path d="M7.97866 11.7281C8.68603 11.2471 9.55485 11.2571 10.2522 11.7531L10.4337 11.8829L10.2489 12.0077C9.54154 12.4887 8.67272 12.4787 7.97533 11.9827L7.79391 11.8529L7.97866 11.7281Z" fill="#EF4F43"/>
</g>
<g clip-path="url(#clip1_348_4049)">
<path d="M3.66176 8.51281C3.55359 8.58986 2.85952 8.10145 2.72659 8.10037C2.59366 8.09931 1.89178 8.57649 1.78487 8.49771C1.67796 8.41893 1.9293 7.60975 1.88924 7.48336C1.84919 7.35696 1.17718 6.83876 1.21927 6.71302C1.26138 6.58728 2.11078 6.5756 2.21895 6.49855C2.32712 6.42151 2.61369 5.62406 2.74663 5.62512C2.87955 5.6262 3.15316 6.42816 3.26007 6.50694C3.36698 6.58571 4.21609 6.61107 4.25616 6.73746C4.29621 6.86385 3.61591 7.37118 3.57381 7.49691C3.53171 7.62265 3.76993 8.43576 3.66176 8.51281Z" fill="url(#paint0_linear_348_4049)"/>
</g>
<g clip-path="url(#clip2_348_4049)">
<path d="M6.34579 4.85523C6.17272 4.97851 5.06221 4.19704 4.84952 4.19532C4.63683 4.19362 3.51382 4.95712 3.34277 4.83107C3.17172 4.70502 3.57385 3.41033 3.50977 3.2081C3.44568 3.00587 2.37047 2.17674 2.43782 1.97556C2.50519 1.77438 3.86423 1.7557 4.0373 1.63241C4.21038 1.50915 4.66888 0.233223 4.88158 0.234926C5.09425 0.236644 5.53204 1.51978 5.7031 1.64583C5.87415 1.77186 7.23273 1.81243 7.29683 2.01466C7.36092 2.21689 6.27244 3.02861 6.20508 3.22979C6.13772 3.43097 6.51887 4.73195 6.34579 4.85523Z" fill="url(#paint1_linear_348_4049)"/>
</g>
<g clip-path="url(#clip3_348_4049)">
<path d="M9.86856 3.64499C9.78202 3.70663 9.22677 3.3159 9.12042 3.31504C9.01408 3.31419 8.45257 3.69593 8.36705 3.63291C8.28152 3.56988 8.48259 2.92254 8.45055 2.82143C8.4185 2.72031 7.8809 2.30575 7.91457 2.20516C7.94826 2.10457 8.62778 2.09522 8.71431 2.03358C8.80085 1.97195 9.0301 1.33399 9.13645 1.33484C9.24279 1.3357 9.46168 1.97727 9.54721 2.04029C9.63274 2.10331 10.312 2.12359 10.3441 2.22471C10.3761 2.32582 9.83188 2.73168 9.7982 2.83227C9.76453 2.93286 9.9551 3.58335 9.86856 3.64499Z" fill="url(#paint2_linear_348_4049)"/>
</g>
<g clip-path="url(#clip4_348_4049)">
<path d="M1.95551 4.86234C1.86897 4.92398 1.31371 4.53324 1.20737 4.53238C1.10103 4.53153 0.539519 4.91328 0.453993 4.85026C0.368466 4.78723 0.569535 4.13989 0.537492 4.03877C0.505449 3.93766 -0.0321585 3.52309 0.00151765 3.4225C0.0352012 3.32191 0.714723 3.31257 0.801259 3.25093C0.887796 3.1893 1.11705 2.55133 1.2234 2.55219C1.32974 2.55304 1.54863 3.19461 1.63416 3.25764C1.71968 3.32065 2.39897 3.34094 2.43102 3.44206C2.46307 3.54317 1.91883 3.94903 1.88515 4.04962C1.85147 4.15021 2.04204 4.8007 1.95551 4.86234Z" fill="url(#paint3_linear_348_4049)"/>
</g>
<defs>
<linearGradient id="paint0_linear_348_4049" x1="1.21738" y1="7.07309" x2="4.25786" y2="7.07309" gradientUnits="userSpaceOnUse">
<stop stop-color="#FCD635"/>
<stop offset="1" stop-color="#F7A928"/>
</linearGradient>
<linearGradient id="paint1_linear_348_4049" x1="2.43479" y1="2.55168" x2="7.29955" y2="2.55168" gradientUnits="userSpaceOnUse">
<stop stop-color="#FCD635"/>
<stop offset="1" stop-color="#F7A928"/>
</linearGradient>
<linearGradient id="paint2_linear_348_4049" x1="7.91306" y1="2.49321" x2="10.3454" y2="2.49321" gradientUnits="userSpaceOnUse">
<stop stop-color="#FCD635"/>
<stop offset="1" stop-color="#F7A928"/>
</linearGradient>
<linearGradient id="paint3_linear_348_4049" x1="3.11345e-06" y1="3.71056" x2="2.43238" y2="3.71056" gradientUnits="userSpaceOnUse">
<stop stop-color="#FCD635"/>
<stop offset="1" stop-color="#F7A928"/>
</linearGradient>
<clipPath id="clip0_348_4049">
<rect width="8.52174" height="8.52174" fill="white" transform="matrix(-1 0 0 1 13.3913 5.47827)"/>
</clipPath>
<clipPath id="clip1_348_4049">
<rect width="3.04348" height="3.04348" fill="white" transform="translate(1.21738 5.47827)"/>
</clipPath>
<clipPath id="clip2_348_4049">
<rect width="4.86957" height="4.86957" fill="white" transform="translate(2.43478)"/>
</clipPath>
<clipPath id="clip3_348_4049">
<rect width="2.43478" height="2.43478" fill="white" transform="translate(7.91306 1.21741)"/>
</clipPath>
<clipPath id="clip4_348_4049">
<rect width="2.43478" height="2.43478" fill="white" transform="translate(0 2.43475)"/>
</clipPath>
</defs>
</svg>
